# xmcd CD database file
#
# Track frame offsets:
#	150
#	12935
#	23067
#	43228
#	60004
#	83412
#	97004
#	108776
#	138469
#	154708
#	176548
#	197867
#	213471
#	225682
#	250602
#
# Disc length: 3531 seconds
#
# Revision: 0
# Processed by: cddbd v1.5.2PL0 Copyright (c) Steve Scherf et al.
# Submitted via: CDex 1.51
#
DISCID=b60dc90f
DTITLE=Ida Kelarova and Jazz Famelija - Sunen Savore
DYEAR=2012
DGENRE=Jazz
TTITLE0=Apsa Duj
TTITLE1=Dzava Mange
TTITLE2=Pre Tute Me Uzarav
TTITLE3=Sako Dzanel
TTITLE4=Le Man Peha
TTITLE5=Basav Phrala
TTITLE6=Calo Dzives
TTITLE7=Av Ca Mri Chaj
TTITLE8=Mire Lava
TTITLE9=Sargi Cik
TTITLE10=Avri Brisindel
TTITLE11=Chaje
TTITLE12=Kamiben
TTITLE13=Soske Mange Naphenes
TTITLE14=Sako Dzives
EXTD=YEAR: 2012
EXTT0=
EXTT1=
EXTT2=
EXTT3=
EXTT4=
EXTT5=
EXTT6=
EXTT7=
EXTT8=
EXTT9=
EXTT10=
EXTT11=
EXTT12=
EXTT13=
EXTT14=
PLAYORDER=
